<svg width="27" height="22" viewBox="0 0 27 22" fill="none" xmlns="http://www.w3.org/2000/svg">
<path d="M23.5 22H3.5C2.70435 22 1.94129 21.6839 1.37868 21.1213C0.816071 20.5587 0.5 19.7956 0.5 19V3C0.5 2.20435 0.816071 1.44129 1.37868 0.87868C1.94129 0.316071 2.70435 0 3.5 0H23.5C24.2956 0 25.0587 0.316071 25.6213 0.87868C26.1839 1.44129 26.5 2.20435 26.5 3V19C26.5 19.7956 26.1839 20.5587 25.6213 21.1213C25.0587 21.6839 24.2956 22 23.5 22ZM3.5 2C3.23478 2 2.98043 2.10536 2.79289 2.29289C2.60536 2.48043 2.5 2.73478 2.5 3V19C2.5 19.2652 2.60536 19.5196 2.79289 19.7071C2.98043 19.8946 3.23478 20 3.5 20H23.5C23.7652 20 24.0196 19.8946 24.2071 19.7071C24.3946 19.5196 24.5 19.2652 24.5 19V3C24.5 2.73478 24.3946 2.48043 24.2071 2.29289C24.0196 2.10536 23.7652 2 23.5 2H3.5Z" fill="#E84339"/>
<path d="M23.5 22C23.3353 21.9991 23.1734 21.9576 23.0286 21.8791C22.8838 21.8006 22.7606 21.6875 22.67 21.55L18.33 15.05C18.2386 14.9138 18.115 14.8023 17.9703 14.7252C17.8255 14.6481 17.664 14.6077 17.5 14.6077C17.336 14.6077 17.1746 14.6481 17.0298 14.7252C16.8851 14.8023 16.7615 14.9138 16.67 15.05L16.33 15.55C16.1737 15.744 15.9506 15.8727 15.7044 15.9109C15.4582 15.949 15.2066 15.8939 14.9989 15.7562C14.7912 15.6186 14.6424 15.4084 14.5815 15.1668C14.5207 14.9251 14.5523 14.6695 14.67 14.45L15 13.94C15.2737 13.5274 15.6452 13.189 16.0814 12.9549C16.5176 12.7208 17.005 12.5983 17.5 12.5983C17.9951 12.5983 18.4825 12.7208 18.9187 12.9549C19.3549 13.189 19.7264 13.5274 20 13.94L24.33 20.45C24.4748 20.6704 24.5266 20.9391 24.4741 21.1976C24.4217 21.4561 24.2693 21.6833 24.05 21.83C23.889 21.9427 23.6966 22.0022 23.5 22Z" fill="#E84339"/>
<path d="M18.5 10C17.9067 10 17.3266 9.82405 16.8333 9.49441C16.3399 9.16477 15.9554 8.69623 15.7284 8.14805C15.5013 7.59987 15.4419 6.99667 15.5576 6.41473C15.6734 5.83279 15.9591 5.29824 16.3787 4.87868C16.7982 4.45912 17.3328 4.1734 17.9147 4.05765C18.4967 3.94189 19.0999 4.0013 19.6481 4.22836C20.1962 4.45543 20.6648 4.83994 20.9944 5.33329C21.3241 5.82664 21.5 6.40666 21.5 7C21.5 7.79565 21.1839 8.55871 20.6213 9.12132C20.0587 9.68393 19.2957 10 18.5 10ZM18.5 6C18.3022 6 18.1089 6.05865 17.9444 6.16853C17.78 6.27841 17.6518 6.43459 17.5761 6.61732C17.5004 6.80004 17.4806 7.00111 17.5192 7.19509C17.5578 7.38907 17.653 7.56726 17.7929 7.70711C17.9327 7.84696 18.1109 7.9422 18.3049 7.98079C18.4989 8.01937 18.7 7.99957 18.8827 7.92388C19.0654 7.84819 19.2216 7.72002 19.3315 7.55557C19.4414 7.39112 19.5 7.19778 19.5 7C19.5 6.73479 19.3946 6.48043 19.2071 6.2929C19.0196 6.10536 18.7652 6 18.5 6Z" fill="#E84339"/>
<path d="M3.50002 22C3.30841 21.9995 3.12098 21.9439 2.96002 21.84C2.73754 21.6965 2.58102 21.4707 2.52478 21.212C2.46854 20.9533 2.51718 20.6829 2.66002 20.46L8.89002 10.84C9.1604 10.4222 9.53047 10.0782 9.9669 9.83905C10.4033 9.59989 10.8924 9.47305 11.39 9.46997C11.8849 9.46979 12.3722 9.59204 12.8084 9.82584C13.2446 10.0596 13.6162 10.3977 13.89 10.81L20.31 20.45C20.4278 20.6695 20.4594 20.9252 20.3985 21.1668C20.3377 21.4084 20.1889 21.6186 19.9812 21.7563C19.7735 21.8939 19.5219 21.949 19.2757 21.9109C19.0294 21.8727 18.8063 21.744 18.65 21.55L12.22 11.92C12.1294 11.7824 12.0063 11.6694 11.8615 11.5909C11.7167 11.5123 11.5547 11.4708 11.39 11.47C11.2244 11.4719 11.0619 11.515 10.917 11.5952C10.7721 11.6755 10.6495 11.7906 10.56 11.93L4.34002 21.54C4.24967 21.6808 4.12543 21.7967 3.97867 21.8771C3.83192 21.9574 3.66734 21.9997 3.50002 22Z" fill="#E84339"/>
</svg>
