<svg width="31" height="34" viewBox="0 0 31 34" fill="none" xmlns="http://www.w3.org/2000/svg">
<path d="M29.7617 21.6751L26.6959 18.6093V14.548C26.6924 11.7414 25.6483 9.03576 23.7656 6.9543C21.8829 4.87284 19.2952 3.56342 16.503 3.27923V0.95752H14.238V3.27923C11.4458 3.56342 8.85811 4.87284 6.97538 6.9543C5.09266 9.03576 4.0486 11.7414 4.04508 14.548V18.6093L0.979295 21.6751C0.766888 21.8874 0.647525 22.1755 0.647461 22.4758V25.8734C0.647461 26.1738 0.766782 26.4619 0.979174 26.6742C1.19157 26.8866 1.47963 27.006 1.78 27.006H9.70779V27.8859C9.68315 29.3227 10.1896 30.7181 11.13 31.8046C12.0705 32.8911 13.3788 33.5924 14.8042 33.774C15.5915 33.8521 16.3865 33.7645 17.1379 33.5169C17.8894 33.2693 18.5807 32.8672 19.1674 32.3364C19.7541 31.8056 20.2232 31.1579 20.5445 30.4349C20.8659 29.7119 21.0323 28.9297 21.0332 28.1385V27.006H28.961C29.2614 27.006 29.5494 26.8866 29.7618 26.6742C29.9742 26.4619 30.0935 26.1738 30.0935 25.8734V22.4758C30.0935 22.1755 29.9741 21.8874 29.7617 21.6751ZM18.7681 28.1385C18.7681 29.0396 18.4102 29.9038 17.773 30.541C17.1358 31.1782 16.2716 31.5361 15.3705 31.5361C14.4694 31.5361 13.6052 31.1782 12.968 30.541C12.3308 29.9038 11.9729 29.0396 11.9729 28.1385V27.006H18.7681V28.1385ZM27.8284 24.7409H2.91254V22.9447L5.97833 19.8789C6.19074 19.6665 6.3101 19.3785 6.31016 19.0782V14.548C6.31016 12.1451 7.26473 9.84053 8.96387 8.14139C10.663 6.44225 12.9675 5.48768 15.3705 5.48768C17.7734 5.48768 20.078 6.44225 21.7771 8.14139C23.4763 9.84053 24.4308 12.1451 24.4308 14.548V19.0782C24.4309 19.3785 24.5502 19.6665 24.7627 19.8789L27.8284 22.9447V24.7409Z" fill="white"/>
</svg>
