<svg width="12" height="10" viewBox="0 0 12 10" fill="none" xmlns="http://www.w3.org/2000/svg">
<path d="M3.85045 2.61871L3.85221 2.61871C3.93901 2.61865 4.02454 2.63951 4.10157 2.67951C4.1786 2.71951 4.24485 2.77749 4.29473 2.84852C4.76245 3.51475 5.52525 3.91154 6.33926 3.91205C7.15328 3.91257 7.91657 3.51673 8.38513 2.85109C8.48739 2.70582 8.6492 2.61871 8.83122 2.61871C9.13152 2.61871 9.37502 2.86222 9.37502 3.16252C9.37502 3.72413 9.00312 4.57619 8.05786 5.53079C7.48487 6.10945 6.85888 6.56374 6.34083 6.86656C5.82279 6.56374 5.1968 6.10945 4.62381 5.53079C3.67854 4.57619 3.30664 3.72413 3.30664 3.16252C3.30664 2.86222 3.55015 2.61871 3.85045 2.61871Z" stroke="#E84339" stroke-width="5" stroke-linecap="round" stroke-linejoin="round"/>
</svg>
