<svg width="20" height="18" viewBox="0 0 16 15" fill="none" xmlns="http://www.w3.org/2000/svg">
<path d="M14.2503 4.90994C13.4282 3.78201 12.2798 3.02835 11.0203 2.68826V2.68997C10.728 2.36527 10.3982 2.06619 10.0291 1.79959C7.23146 -0.234099 3.30422 0.386263 1.26198 3.18387C-0.383773 5.45682 -0.313705 8.51419 1.36452 10.6863L1.37819 12.9524C1.37819 13.0071 1.38673 13.0618 1.40382 13.1131C1.4944 13.4019 1.80202 13.5608 2.08913 13.4702L4.2527 12.7884C4.82521 12.9917 5.41652 13.1079 6.00441 13.1404L5.99587 13.1472C7.51857 14.2564 9.51466 14.5896 11.345 13.9847L13.5171 14.6922C13.5718 14.7093 13.6282 14.7195 13.6863 14.7195C13.9888 14.7195 14.2332 14.4751 14.2332 14.1726V11.8826C15.7388 9.83866 15.7781 7.0137 14.2503 4.90994ZM4.49196 11.575L4.28688 11.4895L2.59499 12.0193L2.5779 10.242L2.44118 10.0882C0.995377 8.3245 0.899674 5.78324 2.25319 3.91873C3.90065 1.65946 7.05885 1.16043 9.31129 2.7908C11.5706 4.43314 12.0713 7.58621 10.4392 9.83182C9.07033 11.71 6.61965 12.4038 4.49196 11.575ZM13.1223 11.2845L12.9856 11.4554L13.0027 13.2327L11.3279 12.6687L11.1228 12.7542C10.1658 13.1097 9.14552 13.1387 8.20046 12.8738L8.19704 12.8721C9.45998 12.4842 10.605 11.698 11.4304 10.5667C12.7361 8.76712 12.948 6.50614 12.1892 4.5784L12.1995 4.58524C12.5925 4.86722 12.9531 5.21927 13.259 5.64481C14.4998 7.34696 14.4297 9.66434 13.1223 11.2845Z" fill="white"/>
</svg>
