<svg width="20" height="18" viewBox="0 0 11 14" fill="none" xmlns="http://www.w3.org/2000/svg">
<path d="M6.11009 10.0821L5.82592 9.88584L5.54175 10.0821L1.75711 12.6964L1.75709 12.6963L1.75445 12.6982C1.75301 12.6989 1.74567 12.7027 1.73089 12.7073C1.70977 12.7138 1.68215 12.7192 1.65132 12.7212C1.62045 12.7233 1.59316 12.7215 1.57281 12.7181C1.56188 12.7162 1.5556 12.7143 1.55331 12.7135L1.54898 12.7112L1.54046 12.707C1.50662 12.6902 1.48068 12.6659 1.46368 12.6389C1.44678 12.6121 1.43881 12.5828 1.43895 12.5543L1.44146 12.0518H1.41446V0.888328C1.41446 0.862591 1.42363 0.84328 1.4394 0.828048C1.45569 0.812321 1.48396 0.796875 1.52686 0.796875L10.1005 0.796875C10.1434 0.796875 10.1717 0.812321 10.1879 0.828048C10.2037 0.84328 10.2129 0.862591 10.2129 0.888328V12.5498C10.2127 12.5512 10.2118 12.5578 10.2079 12.5697C10.2022 12.5869 10.1924 12.6085 10.178 12.6314C10.1637 12.6542 10.1475 12.6738 10.1323 12.6886C10.1248 12.6958 10.1184 12.7011 10.1134 12.7047C10.111 12.7065 10.1091 12.7078 10.1077 12.7087L10.1061 12.7096C10.106 12.7097 10.1058 12.7097 10.1058 12.7098C10.0406 12.7425 9.95439 12.7365 9.89308 12.6952C9.89279 12.695 9.8925 12.6948 9.89221 12.6946L6.11009 10.0821ZM2.13926 0.979781H1.63926V1.47978V11.57V12.5203L2.42246 11.982L5.68918 9.73693C5.69078 9.73616 5.69975 9.73179 5.71829 9.72705C5.74367 9.72057 5.77721 9.71599 5.81521 9.71599C5.8531 9.71599 5.88837 9.72055 5.91693 9.72769C5.93087 9.73117 5.94161 9.73487 5.94923 9.73801C5.95314 9.73963 5.95585 9.74094 5.9575 9.7418L9.21714 11.982L10.0003 12.5203V11.57V1.47978V0.979781H9.50033L2.15151 0.979781H2.13926Z" fill="white" stroke="white"/>
</svg>
