<svg width="11" height="14" viewBox="0 0 11 14" fill="none" xmlns="http://www.w3.org/2000/svg">
<path d="M0.33145 12.8227V1.1592C0.33145 0.827988 0.600907 0.567749 0.943852 0.567749L9.51748 0.567749C9.86043 0.567749 10.1299 0.827988 10.1299 1.1592V12.8227C10.1299 13.0474 9.95841 13.3195 9.75019 13.4259C9.51748 13.5442 9.23578 13.5206 9.02756 13.3786L5.24292 10.7644L1.45827 13.3786C1.27455 13.5087 0.931604 13.5324 0.735636 13.4259C0.620802 13.3691 0.524527 13.2826 0.457502 13.1761C0.390477 13.0696 0.355325 12.9473 0.355947 12.8227H0.33145ZM5.6471 10L1.55625 11.8408L4.82648 9.59332C5.0347 9.45138 5.42664 9.45138 5.6471 9.59332L3 9L8.91733 1.75066L7 6.5L5.6471 10Z" fill="#E84339"/>
</svg>
