<svg width="41" height="40" viewBox="0 0 36 35" fill="none" xmlns="http://www.w3.org/2000/svg">
<path d="M31.125 20.4167V27.7083C31.125 28.4819 30.8177 29.2237 30.2707 29.7707C29.7237 30.3177 28.9819 30.625 28.2083 30.625H7.79167C7.01812 30.625 6.27625 30.3177 5.72927 29.7707C5.18229 29.2237 4.875 28.4819 4.875 27.7083V7.29167C4.875 6.51812 5.18229 5.77625 5.72927 5.22927C6.27625 4.68229 7.01812 4.375 7.79167 4.375H15.0833V7.29167H7.79167V27.7083H28.2083V20.4167H31.125Z" fill="white"/>
<path d="M31.1248 10.2083H25.2915V4.375H22.3748V10.2083H16.5415V13.125H22.3748V18.9583H25.2915V13.125H31.1248V10.2083Z" fill="white"/>
</svg>
