<svg width="21" height="19" viewBox="0 0 21 19" fill="none" xmlns="http://www.w3.org/2000/svg">
<path d="M0.925293 0.729181V18.2708C0.925293 18.4642 1.00616 18.6497 1.15011 18.7864C1.29405 18.9232 1.48928 19 1.69285 19H20.1577C20.3613 19 20.5565 18.9232 20.7005 18.7864C20.8444 18.6497 20.9253 18.4642 20.9253 18.2708V0.729181C20.9253 0.53579 20.8444 0.35032 20.7005 0.213572C20.5565 0.0768242 20.3613 0 20.1577 0H1.69285C1.48928 0 1.29405 0.0768242 1.15011 0.213572C1.00616 0.35032 0.925293 0.53579 0.925293 0.729181ZM14.7701 1.45836H19.3899V5.84712H14.7701V1.45836ZM14.7701 7.30548H19.3899V11.6942H14.7701V7.30548ZM14.7701 13.1526H19.3899V17.5414H14.7701V13.1526ZM8.61528 1.45836H13.235V5.84712H8.61528V1.45836ZM8.61528 7.30548H13.235V11.6942H8.61528V7.30548ZM8.61528 13.1526H13.235V17.5414H8.61528V13.1526ZM2.46041 1.45836H7.08016V5.84712H2.46041V1.45836ZM2.46041 7.30548H7.08016V11.6942H2.46041V7.30548ZM2.46041 13.1526H7.08016V17.5414H2.46041V13.1526Z" fill="white"/>
</svg>
