<svg width="24" height="25" viewBox="0 0 24 25" fill="none" xmlns="http://www.w3.org/2000/svg">
<g id="icons8-google 1">
<path id="Vector" d="M21.8055 10.4058H21V10.3643H12V14.3643H17.6515C16.827 16.6928 14.6115 18.3643 12 18.3643C8.6865 18.3643 6 15.6778 6 12.3643C6 9.05076 8.6865 6.36426 12 6.36426C13.5295 6.36426 14.921 6.94126 15.9805 7.88376L18.809 5.05526C17.023 3.39076 14.634 2.36426 12 2.36426C6.4775 2.36426 2 6.84176 2 12.3643C2 17.8868 6.4775 22.3643 12 22.3643C17.5225 22.3643 22 17.8868 22 12.3643C22 11.6938 21.931 11.0393 21.8055 10.4058Z" fill="#FFC107"/>
<path id="Vector_2" d="M3.15283 7.70976L6.43833 10.1193C7.32733 7.91826 9.48033 6.36426 11.9998 6.36426C13.5293 6.36426 14.9208 6.94126 15.9803 7.88376L18.8088 5.05526C17.0228 3.39076 14.6338 2.36426 11.9998 2.36426C8.15883 2.36426 4.82783 4.53276 3.15283 7.70976Z" fill="#E84339"/>
<path id="Vector_3" d="M12.0002 22.3642C14.5832 22.3642 16.9302 21.3757 18.7047 19.7682L15.6097 17.1492C14.6057 17.9097 13.3577 18.3642 12.0002 18.3642C9.39916 18.3642 7.19066 16.7057 6.35866 14.3912L3.09766 16.9037C4.75266 20.1422 8.11366 22.3642 12.0002 22.3642Z" fill="#4CAF50"/>
<path id="Vector_4" d="M21.8055 10.4058H21V10.3643H12V14.3643H17.6515C17.2555 15.4828 16.536 16.4473 15.608 17.1498L15.6095 17.1488L18.7045 19.7678C18.4855 19.9668 22 17.3643 22 12.3643C22 11.6938 21.931 11.0393 21.8055 10.4058Z" fill="#FFDB58"/>
</g>
</svg>
