<svg width="70" height="75" viewBox="0 0 70 75" fill="none" xmlns="http://www.w3.org/2000/svg">
<g clip-path="url(#clip0_187_15)">
<g clip-path="url(#clip1_187_15)">
<path d="M80.5396 74.9999C80.5396 44.8368 80.5387 14.6728 80.5378 -15.4904C80.5378 -15.6962 80.5378 -15.9012 80.5378 -16.1677H-10.6289C-10.6138 -16.1971 -10.6004 -16.2514 -10.5843 -16.2532C-10.4658 -16.2604 -10.3473 -16.2577 -10.2288 -16.2577H80.6287V-15.5679C80.6287 14.4874 80.6287 44.5427 80.6251 74.5989C80.6251 74.7325 80.5699 74.8662 80.5396 74.999V74.9999Z" fill="white"/>
<path d="M34.809 3.68977C36.3971 3.6657 37.7018 3.99901 38.9664 4.63621C43.5079 6.92388 48.0699 9.16789 52.6239 11.4306C53.3404 11.7871 54.0685 12.1249 54.7654 12.517C55.1468 12.7318 55.5238 12.9973 55.8179 13.3182C56.4569 14.016 56.374 14.8661 55.6307 15.4534C55.2965 15.7172 54.9151 15.9302 54.5355 16.1263C49.4192 18.7758 44.3002 21.419 39.1794 24.0614C38.0369 24.6514 36.9283 25.3242 35.6289 25.5435C34.0996 25.801 32.6114 25.7074 31.206 24.9981C25.8339 22.2853 20.4645 19.5681 15.096 16.8473C14.7395 16.6663 14.3866 16.4721 14.0577 16.2457C12.9562 15.4873 12.9197 14.2396 13.9829 13.4287C14.3224 13.1693 14.7012 12.9537 15.0826 12.7603C20.4226 10.0528 25.7662 7.35255 31.1088 4.65136C32.3289 4.03466 33.5926 3.59441 34.8072 3.69155L34.809 3.68977ZM43.7619 11.4841C43.7539 11.526 43.7467 11.567 43.7387 11.6089C43.4865 11.6089 43.2334 11.591 42.983 11.6124C42.1774 11.6819 41.4011 11.8646 40.7194 12.3254C39.5493 13.1159 39.5698 14.3038 40.7711 15.0355C41.0465 15.203 41.3512 15.3403 41.6605 15.4294C43.0659 15.834 44.4748 15.8108 45.8562 15.3349C46.267 15.1932 46.6698 14.9633 47.0085 14.6897C47.635 14.1826 47.7206 13.4554 47.1948 12.8476C46.8864 12.4911 46.4738 12.1454 46.0389 11.9939C45.309 11.7399 44.523 11.6454 43.761 11.4841H43.7619ZM34.588 20.2899C35.6824 20.2748 36.7527 20.1464 37.6867 19.511C38.6206 18.8756 38.691 17.9399 37.8765 17.1503C37.7197 16.9979 37.5334 16.8606 37.3373 16.7662C35.5835 15.9213 33.8171 15.9668 32.0588 16.7466C31.3985 17.0398 30.8896 17.5219 30.8842 18.2838C30.8789 19.061 31.4475 19.4914 32.0793 19.806C32.8662 20.1972 33.7173 20.3015 34.588 20.2908V20.2899ZM34.6005 8.77399C34.0159 8.85954 33.425 8.91391 32.8493 9.03867C32.1756 9.18394 31.55 9.45575 31.0865 10.0003C30.6089 10.5617 30.6115 11.2461 31.1454 11.7532C31.4288 12.0224 31.7772 12.2478 32.1337 12.4118C33.204 12.9046 34.342 12.9341 35.4899 12.8084C36.2777 12.7219 37.0379 12.5295 37.7036 12.0749C38.6465 11.4324 38.6875 10.4298 37.8016 9.70795C37.6198 9.55912 37.4149 9.43079 37.2036 9.32652C36.3864 8.92193 35.505 8.8337 34.6005 8.77577V8.77399ZM25.5906 17.0487C25.8651 17.0219 26.2964 17.0077 26.7179 16.9337C27.4665 16.8027 28.192 16.5933 28.7855 16.0773C29.4583 15.4918 29.5172 14.7494 28.9094 14.0944C28.6919 13.86 28.4272 13.6212 28.1358 13.5133C27.5316 13.2905 26.9042 13.0722 26.2697 12.9982C24.9979 12.8521 23.7458 12.992 22.631 13.6987C21.4261 14.4615 21.4483 15.6335 22.6595 16.3785C23.5132 16.9034 24.4641 17.0103 25.5906 17.0487Z" fill="white"/>
<path d="M26.0597 37.2466C26.0597 34.1167 26.057 30.9878 26.0633 27.8579C26.0633 27.505 26.0758 27.1414 26.1577 26.8001C26.4073 25.7574 27.2735 25.3653 28.2021 25.8937C29.4266 26.5915 29.9515 27.7225 29.9578 29.0851C29.9783 33.803 29.9729 38.5219 29.9756 43.2398C29.9765 44.6942 30.0148 46.1495 29.9506 47.6013C29.9275 48.1226 29.7483 48.6885 29.4783 49.1386C28.9133 50.0823 27.8091 50.1661 27.0837 49.3257C26.7147 48.8988 26.4305 48.3668 26.2273 47.8366C25.0785 44.835 23.9628 41.8219 22.8416 38.8097C22.0619 36.7145 21.2919 34.6158 20.5156 32.5188C20.4871 32.4413 20.4461 32.3673 20.3543 32.313C20.3543 32.4564 20.3543 32.6008 20.3543 32.7443C20.3517 36.187 20.3588 39.6287 20.3347 43.0714C20.3312 43.5187 20.2314 43.9911 20.0656 44.4073C19.6931 45.3466 18.7475 45.5783 17.9633 44.9384C16.9919 44.1461 16.5481 43.0723 16.5463 41.8487C16.5347 35.572 16.5427 29.2963 16.565 23.0197C16.5668 22.5865 16.6693 22.1285 16.835 21.7274C17.1523 20.9566 17.8644 20.7061 18.6326 21.0359C19.6592 21.477 20.2242 22.3388 20.6253 23.32C21.1466 24.5944 21.6439 25.8786 22.134 27.1646C23.3639 30.3871 24.5839 33.6141 25.8084 36.8384C25.8637 36.9846 25.9305 37.1272 25.992 37.2715L26.0597 37.2457V37.2466Z" fill="white"/>
<path d="M31.7406 39.5662C31.7406 36.2724 31.737 32.9777 31.7423 29.6838C31.7441 28.5592 32.3813 28.0191 33.49 28.2063C34.2403 28.3328 34.9613 28.2312 35.6894 28.0512C36.6091 27.8239 37.5297 27.5468 38.4655 27.4532C40.5678 27.242 42.343 27.9692 43.7235 29.5858C44.9747 31.0509 45.6582 32.7834 45.8926 34.6674C46.635 40.6267 44.6699 45.588 40.1667 49.5083C38.6089 50.8647 36.7419 51.7095 34.6672 52.0642C32.8216 52.3797 31.7762 50.9859 31.7628 49.6251C31.7317 46.3606 31.7343 43.0971 31.7236 39.8327C31.7236 39.7436 31.7236 39.6544 31.7236 39.5653C31.729 39.5653 31.7334 39.5653 31.7388 39.5653L31.7406 39.5662ZM35.9256 46.6289C36.3106 46.456 36.6127 46.3098 36.9237 46.1824C41.3645 44.3688 42.9071 39.4138 42.0632 35.8874C41.6479 34.1505 40.7104 32.8698 38.8505 32.4848C37.9504 32.2986 37.126 32.5838 36.3034 32.9019C36.0022 33.0187 35.9193 33.1862 35.9211 33.4963C35.9318 36.6529 35.9265 39.8104 35.9265 42.967C35.9265 44.1514 35.9265 45.3358 35.9265 46.628L35.9256 46.6289Z" fill="white"/>
<path d="M46.5032 40.4201C46.5719 38.9612 46.7216 37.5166 46.6886 36.0756C46.6307 33.4831 45.9632 31.0555 44.2254 29.0494C42.3966 26.9382 43.5525 24.229 45.4579 23.2425C48.2598 21.7925 51.1026 20.4218 53.925 19.0111C54.9588 18.4942 55.989 17.9702 57.0094 17.4283C57.6956 17.0647 58.3854 16.981 59.0146 17.4702C59.6634 17.9746 59.8006 18.6947 59.6304 19.4772C59.4219 20.437 58.8649 21.1295 57.9906 21.5688C56.2849 22.4261 54.5774 23.2799 52.8725 24.139C51.272 24.9446 49.6732 25.7529 48.0771 26.5675C47.8953 26.6602 47.7054 26.7689 47.5691 26.9159C47.2598 27.251 47.414 27.7225 47.84 27.8107C48.962 28.0442 49.4254 28.4621 49.437 29.5761C49.4646 32.2292 49.462 34.8849 49.3631 37.5353C49.3078 39.0067 48.1395 40.1527 46.6975 40.4165C46.6013 40.4343 46.4997 40.4192 46.5014 40.4192L46.5032 40.4201Z" fill="white"/>
<path d="M10.8149 29.283C10.8149 26.1817 10.8042 23.0803 10.8283 19.979C10.8318 19.5352 10.9299 19.0575 11.1188 18.6592C11.4352 17.9926 12.0501 17.792 12.7292 18.0844C13.8975 18.5879 14.5686 19.537 14.6434 20.7659C14.7522 22.5403 14.7299 24.3244 14.7254 26.105C14.7129 30.7045 14.68 35.3039 14.6541 39.9042C14.6506 40.5369 14.4492 41.1028 14.0285 41.5734C13.5651 42.0903 13.0384 42.1776 12.4244 41.8541C11.7604 41.5039 11.3229 40.9389 11.1081 40.2402C10.9495 39.7224 10.8309 39.1698 10.8265 38.6316C10.8006 35.516 10.814 32.3995 10.814 29.2839L10.8149 29.283Z" fill="white"/>
<path d="M50.9954 34.434C50.9954 33.7665 51.0035 33.0999 50.9919 32.4324C50.9865 32.1 51.1068 31.871 51.4081 31.7159C53.3179 30.7356 55.2125 29.7223 57.1375 28.7714C58.3076 28.1931 59.5918 29.0682 59.697 30.479C59.8209 32.1499 59.1926 33.5028 57.7364 34.3316C55.8854 35.3849 53.9756 36.3367 52.0818 37.3144C51.5301 37.5987 51.0863 37.3607 51.0489 36.7431C51.0026 35.9758 51.0382 35.2031 51.0382 34.4332C51.0239 34.4332 51.0106 34.4332 50.9963 34.4332L50.9954 34.434Z" fill="white"/>
<path d="M15.8706 15.024L33.7683 23.7861L53.3985 13.591L35.8742 4.49194L15.8706 15.024Z" fill="white"/>
<path d="M80.5396 74.9999C80.5396 44.8368 80.5387 14.6728 80.5378 -15.4904C80.5378 -15.6962 80.5378 -15.9012 80.5378 -16.1677H-10.6289C-10.6138 -16.1971 -10.6004 -16.2514 -10.5843 -16.2532C-10.4658 -16.2604 -10.3473 -16.2577 -10.2288 -16.2577H80.6287V-15.5679C80.6287 14.4874 80.6287 44.5427 80.6251 74.5989C80.6251 74.7325 80.5699 74.8662 80.5396 74.999V74.9999Z" fill="white"/>
<path d="M34.809 3.68977C36.3971 3.6657 37.7018 3.99901 38.9664 4.63621C43.5079 6.92388 48.0699 9.16789 52.6239 11.4306C53.3404 11.7871 54.0685 12.1249 54.7654 12.517C55.1468 12.7318 55.5238 12.9973 55.8179 13.3182C56.4569 14.016 56.374 14.8661 55.6307 15.4534C55.2965 15.7172 54.9151 15.9302 54.5355 16.1263C49.4192 18.7758 44.3002 21.419 39.1794 24.0614C38.0369 24.6514 36.9283 25.3242 35.6289 25.5435C34.0996 25.801 32.6114 25.7074 31.206 24.9981C25.8339 22.2853 20.4645 19.5681 15.096 16.8473C14.7395 16.6663 14.3866 16.4721 14.0577 16.2457C12.9562 15.4873 12.9197 14.2396 13.9829 13.4287C14.3224 13.1693 14.7012 12.9537 15.0826 12.7603C20.4226 10.0528 25.7662 7.35255 31.1088 4.65136C32.3289 4.03466 33.5926 3.59441 34.8072 3.69155L34.809 3.68977ZM43.7619 11.4841C43.7539 11.526 43.7467 11.567 43.7387 11.6089C43.4865 11.6089 43.2334 11.591 42.983 11.6124C42.1774 11.6819 41.4011 11.8646 40.7194 12.3254C39.5493 13.1159 39.5698 14.3038 40.7711 15.0355C41.0465 15.203 41.3512 15.3403 41.6605 15.4294C43.0659 15.834 44.4748 15.8108 45.8562 15.3349C46.267 15.1932 46.6698 14.9633 47.0085 14.6897C47.635 14.1826 47.7206 13.4554 47.1948 12.8476C46.8864 12.4911 46.4738 12.1454 46.0389 11.9939C45.309 11.7399 44.523 11.6454 43.761 11.4841H43.7619ZM34.588 20.2899C35.6824 20.2748 36.7527 20.1464 37.6867 19.511C38.6206 18.8756 38.691 17.9399 37.8765 17.1503C37.7197 16.9979 37.5334 16.8606 37.3373 16.7662C35.5835 15.9213 33.8171 15.9668 32.0588 16.7466C31.3985 17.0398 30.8896 17.5219 30.8842 18.2838C30.8789 19.061 31.4475 19.4914 32.0793 19.806C32.8662 20.1972 33.7173 20.3015 34.588 20.2908V20.2899ZM34.6005 8.77399C34.0159 8.85954 33.425 8.91391 32.8493 9.03867C32.1756 9.18394 31.55 9.45575 31.0865 10.0003C30.6089 10.5617 30.6115 11.2461 31.1454 11.7532C31.4288 12.0224 31.7772 12.2478 32.1337 12.4118C33.204 12.9046 34.342 12.9341 35.4899 12.8084C36.2777 12.7219 37.0379 12.5295 37.7036 12.0749C38.6465 11.4324 38.6875 10.4298 37.8016 9.70795C37.6198 9.55912 37.4149 9.43079 37.2036 9.32652C36.3864 8.92193 35.505 8.8337 34.6005 8.77577V8.77399ZM25.5906 17.0487C25.8651 17.0219 26.2964 17.0077 26.7179 16.9337C27.4665 16.8027 28.192 16.5933 28.7855 16.0773C29.4583 15.4918 29.5172 14.7494 28.9094 14.0944C28.6919 13.86 28.4272 13.6212 28.1358 13.5133C27.5316 13.2905 26.9042 13.0722 26.2697 12.9982C24.9979 12.8521 23.7458 12.992 22.631 13.6987C21.4261 14.4615 21.4483 15.6335 22.6595 16.3785C23.5132 16.9034 24.4641 17.0103 25.5906 17.0487Z" fill="white"/>
<path d="M26.0597 37.2466C26.0597 34.1167 26.057 30.9878 26.0633 27.8579C26.0633 27.505 26.0758 27.1414 26.1577 26.8001C26.4073 25.7574 27.2735 25.3653 28.2021 25.8937C29.4266 26.5915 29.9515 27.7225 29.9578 29.0851C29.9783 33.803 29.9729 38.5219 29.9756 43.2398C29.9765 44.6942 30.0148 46.1495 29.9506 47.6013C29.9275 48.1226 29.7483 48.6885 29.4783 49.1386C28.9133 50.0823 27.8091 50.1661 27.0837 49.3257C26.7147 48.8988 26.4305 48.3668 26.2273 47.8366C25.0785 44.835 23.9628 41.8219 22.8416 38.8097C22.0619 36.7145 21.2919 34.6158 20.5156 32.5188C20.4871 32.4413 20.4461 32.3673 20.3543 32.313C20.3543 32.4564 20.3543 32.6008 20.3543 32.7443C20.3517 36.187 20.3588 39.6287 20.3347 43.0714C20.3312 43.5187 20.2314 43.9911 20.0656 44.4073C19.6931 45.3466 18.7475 45.5783 17.9633 44.9384C16.9919 44.1461 16.5481 43.0723 16.5463 41.8487C16.5347 35.572 16.5427 29.2963 16.565 23.0197C16.5668 22.5865 16.6693 22.1285 16.835 21.7274C17.1523 20.9566 17.8644 20.7061 18.6326 21.0359C19.6592 21.477 20.2242 22.3388 20.6253 23.32C21.1466 24.5944 21.6439 25.8786 22.134 27.1646C23.3639 30.3871 24.5839 33.6141 25.8084 36.8384C25.8637 36.9846 25.9305 37.1272 25.992 37.2715L26.0597 37.2457V37.2466Z" fill="white"/>
<path d="M31.7406 39.5662C31.7406 36.2724 31.737 32.9777 31.7423 29.6838C31.7441 28.5592 32.3813 28.0191 33.49 28.2063C34.2403 28.3328 34.9613 28.2312 35.6894 28.0512C36.6091 27.8239 37.5297 27.5468 38.4655 27.4532C40.5678 27.242 42.343 27.9692 43.7235 29.5858C44.9747 31.0509 45.6582 32.7834 45.8926 34.6674C46.635 40.6267 44.6699 45.588 40.1667 49.5083C38.6089 50.8647 36.7419 51.7095 34.6672 52.0642C32.8216 52.3797 31.7762 50.9859 31.7628 49.6251C31.7317 46.3606 31.7343 43.0971 31.7236 39.8327C31.7236 39.7436 31.7236 39.6544 31.7236 39.5653C31.729 39.5653 31.7334 39.5653 31.7388 39.5653L31.7406 39.5662ZM35.9256 46.6289C36.3106 46.456 36.6127 46.3098 36.9237 46.1824C41.3645 44.3688 42.9071 39.4138 42.0632 35.8874C41.6479 34.1505 40.7104 32.8698 38.8505 32.4848C37.9504 32.2986 37.126 32.5838 36.3034 32.9019C36.0022 33.0187 35.9193 33.1862 35.9211 33.4963C35.9318 36.6529 35.9265 39.8104 35.9265 42.967C35.9265 44.1514 35.9265 45.3358 35.9265 46.628L35.9256 46.6289Z" fill="white"/>
<path d="M46.5032 40.4201C46.5719 38.9612 46.7216 37.5166 46.6886 36.0756C46.6307 33.4831 45.9632 31.0555 44.2254 29.0494C42.3966 26.9382 43.5525 24.229 45.4579 23.2425C48.2598 21.7925 51.1026 20.4218 53.925 19.0111C54.9588 18.4942 55.989 17.9702 57.0094 17.4283C57.6956 17.0647 58.3854 16.981 59.0146 17.4702C59.6634 17.9746 59.8006 18.6947 59.6304 19.4772C59.4219 20.437 58.8649 21.1295 57.9906 21.5688C56.2849 22.4261 54.5774 23.2799 52.8725 24.139C51.272 24.9446 49.6732 25.7529 48.0771 26.5675C47.8953 26.6602 47.7054 26.7689 47.5691 26.9159C47.2598 27.251 47.414 27.7225 47.84 27.8107C48.962 28.0442 49.4254 28.4621 49.437 29.5761C49.4646 32.2292 49.462 34.8849 49.3631 37.5353C49.3078 39.0067 48.1395 40.1527 46.6975 40.4165C46.6013 40.4343 46.4997 40.4192 46.5014 40.4192L46.5032 40.4201Z" fill="white"/>
<path d="M10.8149 29.283C10.8149 26.1817 10.8042 23.0803 10.8283 19.979C10.8318 19.5352 10.9299 19.0575 11.1188 18.6592C11.4352 17.9926 12.0501 17.792 12.7292 18.0844C13.8975 18.5879 14.5686 19.537 14.6434 20.7659C14.7522 22.5403 14.7299 24.3244 14.7254 26.105C14.7129 30.7045 14.68 35.3039 14.6541 39.9042C14.6506 40.5369 14.4492 41.1028 14.0285 41.5734C13.5651 42.0903 13.0384 42.1776 12.4244 41.8541C11.7604 41.5039 11.3229 40.9389 11.1081 40.2402C10.9495 39.7224 10.8309 39.1698 10.8265 38.6316C10.8006 35.516 10.814 32.3995 10.814 29.2839L10.8149 29.283Z" fill="white"/>
<path d="M50.9954 34.434C50.9954 33.7665 51.0035 33.0999 50.9919 32.4324C50.9865 32.1 51.1068 31.871 51.4081 31.7159C53.3179 30.7356 55.2125 29.7223 57.1375 28.7714C58.3076 28.1931 59.5918 29.0682 59.697 30.479C59.8209 32.1499 59.1926 33.5028 57.7364 34.3316C55.8854 35.3849 53.9756 36.3367 52.0818 37.3144C51.5301 37.5987 51.0863 37.3607 51.0489 36.7431C51.0026 35.9758 51.0382 35.2031 51.0382 34.4332C51.0239 34.4332 51.0106 34.4332 50.9963 34.4332L50.9954 34.434Z" fill="white"/>
<path d="M15.8706 15.024L33.7683 23.7861L53.3985 13.591L35.8742 4.49194L15.8706 15.024Z" fill="white"/>
<path d="M46.0975 40.8932C46.0975 40.8932 46.7249 40.8682 47.1009 40.6927C47.477 40.5171 56.8853 35.5746 56.8853 35.5746C56.8853 35.5746 58.3156 34.9721 59.0429 35.7252C59.7701 36.4782 59.7701 36.9541 59.7701 36.9541V41.4448C59.7701 41.4448 59.4938 42.975 58.5153 43.778C57.5368 44.5809 56.4326 45.3081 55.4799 45.76C54.5272 46.2118 36.5885 55.7698 36.5885 55.7698C36.5885 55.7698 35.7606 56.4471 33.7287 56.1708C31.6968 55.8945 31.6968 53.0846 31.6968 53.0846V51.4787C31.6968 51.4787 31.7814 51.3005 32.0827 51.6177C32.3839 51.935 32.8616 52.3806 33.3134 52.4073C33.7652 52.4341 35.307 52.5998 36.5377 52.0072C37.7684 51.4145 39.5152 50.8665 41.6246 48.7276C43.734 46.5888 44.848 44.351 45.2615 43.3653C45.6751 42.3797 46.0966 40.8914 46.0966 40.8914L46.0975 40.8932Z" fill="#E84339"/>
<path d="M50.3285 43.7993L55.5928 40.9564C55.5928 40.9564 56.0196 40.6846 56.1792 40.9564C56.3387 41.2282 56.0963 41.4394 56.0963 41.4394L45.0268 47.4398C45.0268 47.4398 44.6695 47.6189 44.5928 47.389C44.5162 47.159 44.4271 46.9612 44.8415 46.7634C45.2559 46.5655 50.3285 43.7993 50.3285 43.7993Z" fill="#E84339"/>
<path d="M26.0386 49.1484V51.0787C26.0386 51.0787 26.1491 51.8353 26.6214 52.5046C27.0937 53.1739 27.4253 53.4582 27.9769 53.6159C28.5286 53.7736 29.2139 53.6631 29.5686 53.0803C29.9233 52.4975 29.9545 52.395 29.9545 51.6464V49.3926L29.8671 49.397C29.8671 49.397 29.6773 49.8863 28.9492 50.1287C28.2211 50.3711 27.6071 50.2766 27.0911 49.856C26.5751 49.4353 26.3594 49.1484 26.3594 49.1484L26.2026 49.037H26.0386V49.1484Z" fill="#E84339"/>
<path d="M16.4805 45.7483V43.9695L16.566 43.8795L16.656 43.9553C16.656 43.9553 17.0731 44.7235 17.4626 45.0274C17.852 45.3313 18.0793 45.5585 18.3832 45.5968C18.687 45.6352 19.3269 45.6253 19.3269 45.6253C19.3269 45.6253 19.8394 45.4828 20.0621 45.2314L20.1459 45.1298H20.219L20.2359 47.438C20.2359 47.438 20.1923 48.069 19.7066 48.4941C19.2209 48.9192 18.5061 48.6901 18.3591 48.5992C18.212 48.5083 17.6354 48.3889 16.9929 47.1876C16.9929 47.1876 16.6881 46.7803 16.583 46.3107C16.4778 45.841 16.4814 45.7483 16.4814 45.7483H16.4805Z" fill="#E84339"/>
<path d="M15.2856 42.9786V37.013C15.2856 37.013 15.3274 36.8125 15.5199 36.817C15.7124 36.8214 15.7561 36.9328 15.7516 36.997C15.7472 37.0612 15.8087 43.0392 15.8087 43.0392C15.8087 43.0392 15.7944 43.2415 15.6001 43.2504C15.4059 43.2594 15.2847 43.1961 15.2847 42.9777L15.2856 42.9786Z" fill="#E84339"/>
<path d="M10.7748 41.0018V42.876C10.7748 42.876 10.8933 43.7877 11.3149 44.2769C11.7364 44.7662 11.7204 44.9694 12.395 45.3829C13.0696 45.7964 13.1971 45.7037 13.4671 45.636C13.7371 45.5683 14.0918 45.4078 14.336 44.9863C14.5802 44.5648 14.6648 43.7796 14.6479 43.3492C14.631 42.9188 14.6497 41.6185 14.6497 41.6185L14.541 41.6212C14.541 41.6212 14.1096 42.2504 13.7443 42.3413C13.7443 42.3413 13.3094 42.4821 12.9253 42.4527C12.5411 42.4233 11.9432 42.0026 11.9432 42.0026C11.9432 42.0026 11.2774 41.6203 10.9611 40.9341H10.7739V41.0027L10.7748 41.0018Z" fill="#E84339"/>
<path d="M42.4134 12.5037C42.4134 12.5037 42.8474 12.1196 44.0335 11.9022C45.2197 11.6847 46.9228 11.8852 47.4566 12.1027C47.9904 12.3201 48.7087 12.7541 48.8763 13.1712C49.0429 13.5883 49.3441 14.2567 48.6588 14.8074C47.9744 15.3582 48.0091 15.2343 48.0091 15.2343C48.0091 15.2343 47.6865 15.5445 46.8693 15.696C46.0521 15.8475 45.1493 15.8216 45.1493 15.8216C45.1493 15.8216 44.6093 15.9143 43.3892 15.6309C42.1701 15.3475 41.7485 14.6426 41.7485 14.6426C41.7485 14.6426 41.3395 14.0366 41.6033 13.3637C41.6033 13.3637 41.7771 12.9618 42.4134 12.5046V12.5037Z" fill="#1D1D1B"/>
<path d="M32.0755 17.5416C32.0755 17.5416 32.5095 17.1575 33.6957 16.94C34.8818 16.7226 36.5849 16.9231 37.1187 17.1405C37.6525 17.358 38.3708 17.792 38.5384 18.2091C38.705 18.6261 39.0062 19.2945 38.3209 19.8453C37.6365 20.396 37.6712 20.2722 37.6712 20.2722C37.6712 20.2722 37.3486 20.5823 36.5314 20.7338C35.7142 20.8853 34.8114 20.8595 34.8114 20.8595C34.8114 20.8595 34.2714 20.9521 33.0513 20.6687C31.8313 20.3853 31.4107 19.6804 31.4107 19.6804C31.4107 19.6804 31.0016 19.0744 31.2654 18.4016C31.2654 18.4016 31.4392 17.9996 32.0755 17.5425V17.5416Z" fill="#1D1D1B"/>
<path d="M21.0818 12.903C21.0818 12.903 21.5158 12.5189 22.702 12.3015C23.8882 12.084 25.5912 12.2845 26.1251 12.502C26.6589 12.7194 27.3772 13.1534 27.5447 13.5705C27.7123 13.9876 28.0126 14.656 27.3273 15.2067C26.6419 15.7575 26.6776 15.6336 26.6776 15.6336C26.6776 15.6336 26.355 15.9437 25.5378 16.0952C24.7205 16.2468 23.8178 16.2209 23.8178 16.2209C23.8178 16.2209 23.2777 16.3136 22.0577 16.0302C20.8376 15.7468 20.417 15.0419 20.417 15.0419C20.417 15.0419 20.008 14.4359 20.2717 13.763C20.2717 13.763 20.4455 13.3611 21.0818 12.9039V12.903Z" fill="#1D1D1B"/>
<path d="M31.7474 7.61835C31.7474 7.61835 32.1814 7.23425 33.3675 7.0168C34.5537 6.79935 36.2568 6.99986 36.7906 7.21731C37.3244 7.43476 38.0427 7.86877 38.2102 8.28585C38.3769 8.70292 38.6781 9.37131 37.9928 9.92207C37.3084 10.4728 37.3431 10.3489 37.3431 10.3489C37.3431 10.3489 37.0205 10.6591 36.2033 10.8106C35.3861 10.9621 34.4833 10.9362 34.4833 10.9362C34.4833 10.9362 33.9432 11.0289 32.7232 10.7455C31.5032 10.4621 31.0825 9.7572 31.0825 9.7572C31.0825 9.7572 30.6735 9.15119 30.9373 8.47834C30.9373 8.47834 31.1111 8.07642 31.7474 7.61924V7.61835Z" fill="#1D1D1B"/>
<path d="M34.5149 7.60938L32.3618 9.6493H36.8097L34.5149 7.60938Z" fill="white"/>
<path d="M32.9135 18.0527C34.2663 18.6827 35.6192 19.3119 36.972 19.942C37.1654 20.032 37.3356 19.7441 37.1404 19.6532C35.7876 19.0232 34.4348 18.394 33.082 17.7639C32.8886 17.6739 32.7183 17.9618 32.9135 18.0527Z" fill="white"/>
<path d="M43.5102 12.8704C43.5102 12.8704 43.7901 12.6235 44.5529 12.4836C45.3158 12.3437 46.4128 12.4729 46.7568 12.6128C47.1008 12.7527 47.5634 13.0317 47.6703 13.3008C47.7772 13.5699 47.9715 13.9995 47.5304 14.3542C47.0892 14.7089 47.1124 14.6287 47.1124 14.6287C47.1124 14.6287 46.9048 14.8283 46.3781 14.9254C45.8514 15.0226 45.2703 15.0056 45.2703 15.0056C45.2703 15.0056 44.9228 15.0654 44.1376 14.8827C43.3525 14.7 43.0816 14.2464 43.0816 14.2464C43.0816 14.2464 42.8187 13.856 42.988 13.4229C42.988 13.4229 43.1003 13.1645 43.5093 12.8695L43.5102 12.8704Z" fill="white"/>
<path d="M44.0523 13.1244C44.0523 13.1244 44.2555 12.9443 44.8107 12.8428C45.3659 12.7412 46.1626 12.8347 46.413 12.9363C46.6635 13.0379 46.9994 13.2411 47.077 13.4363C47.1545 13.6315 47.2962 13.9443 46.9754 14.2018C46.6546 14.4594 46.6715 14.4014 46.6715 14.4014C46.6715 14.4014 46.52 14.5467 46.1377 14.6171C45.7553 14.6875 45.3329 14.6759 45.3329 14.6759C45.3329 14.6759 45.0798 14.7187 44.5095 14.5868C43.9391 14.4549 43.7413 14.1243 43.7413 14.1243C43.7413 14.1243 43.5497 13.8409 43.6735 13.5254C43.6735 13.5254 43.7546 13.3374 44.0532 13.1235L44.0523 13.1244Z" fill="#1D1D1B"/>
<path d="M36.972 17.7639C35.6192 18.394 34.2663 19.0232 32.9135 19.6532C32.7183 19.7441 32.8886 20.032 33.082 19.942C34.4348 19.3119 35.7876 18.6827 37.1404 18.0527C37.3356 17.9618 37.1654 17.6739 36.972 17.7639Z" fill="white"/>
<path d="M22.459 13.1204H25.2217" stroke="white" stroke-width="0.32592" stroke-miterlimit="10"/>
<path d="M25.477 15.2625L25.1216 13.0356" stroke="white" stroke-width="0.32592" stroke-miterlimit="10"/>
<path d="M25.5777 15.1495H22.1021" stroke="white" stroke-width="0.32592" stroke-miterlimit="10"/>
<path d="M22.558 13.0706L22.2017 15.2083" stroke="white" stroke-width="0.32592" stroke-miterlimit="10"/>
<path d="M22.4243 13.0482L22.4377 12.9868H22.459L22.4768 13.0527L22.4564 13.0651L22.4243 13.0482Z" fill="white"/>
<path d="M25.223 12.9868H25.2496L25.2542 13.0153L25.2368 13.0235L25.2212 13.0208L25.223 12.9868Z" fill="white"/>
<path d="M25.6094 15.2424L25.6184 15.2838H25.5788L25.5752 15.264L25.5788 15.2451L25.6094 15.2424Z" fill="white"/>
<path d="M22.0687 15.188L22.0454 15.2836H22.1026L22.1304 15.213L22.1205 15.1638L22.0687 15.188Z" fill="white"/>
<path d="M25.5728 15.0142L25.5808 15.0614L25.5861 15.0142H25.5728Z" fill="#1D1D1B"/>
<path d="M34.5368 7.91687L33.0859 9.32049H36.083L34.5368 7.91687Z" fill="#1D1D1B"/>
</g>
</g>
<defs>
<clipPath id="clip0_187_15">
<rect width="70" height="75" fill="white"/>
</clipPath>
<clipPath id="clip1_187_15">
<rect width="91.2576" height="91.2576" fill="white" transform="translate(-10.6289 -16.2576)"/>
</clipPath>
</defs>
</svg>
