<svg width="30" height="31" viewBox="0 0 30 31" fill="none" xmlns="http://www.w3.org/2000/svg">
<path d="M13.3866 0.834696C13.8258 0.462735 14.3828 0.258606 14.9583 0.258606C15.5339 0.258606 16.0908 0.462735 16.5301 0.834696L28.6829 11.1451C28.952 11.3733 29.1682 11.6572 29.3165 11.9774C29.4648 12.2975 29.5416 12.646 29.5417 12.9988V28.2352C29.5417 28.8798 29.2856 29.498 28.8298 29.9538C28.374 30.4096 27.7557 30.6657 27.1111 30.6657H17.794C17.4717 30.6657 17.1626 30.5377 16.9347 30.3098C16.7067 30.0819 16.5787 29.7727 16.5787 29.4504V19.3231H13.338V29.4504C13.338 29.7727 13.2099 30.0819 12.982 30.3098C12.7541 30.5377 12.445 30.6657 12.1227 30.6657H2.80556C2.16093 30.6657 1.54271 30.4096 1.08689 29.9538C0.631076 29.498 0.375 28.8798 0.375 28.2352V12.9988C0.375 12.2859 0.689352 11.6069 1.2338 11.1451L13.3866 0.834696ZM14.9583 2.6884L2.80556 12.9988V28.2352H10.9074V18.1078C10.9074 17.7855 11.0354 17.4764 11.2634 17.2485C11.4913 17.0206 11.8004 16.8926 12.1227 16.8926H17.794C18.1163 16.8926 18.4254 17.0206 18.6533 17.2485C18.8812 17.4764 19.0093 17.7855 19.0093 18.1078V28.2352H27.1111V12.9988L14.9583 2.6884Z" fill="white"/>
</svg>
