<svg width="29" height="29" viewBox="0 0 29 29" fill="none" xmlns="http://www.w3.org/2000/svg">
<path d="M10.3763 28.4659L9.81283 23.9582C9.50763 23.8409 9.22026 23.7 8.95075 23.5357C8.68123 23.3713 8.41687 23.1952 8.15769 23.0074L3.967 24.7682L0.0932617 18.0772L3.72049 15.3304C3.69701 15.166 3.68528 15.0078 3.68528 14.8557V13.9048C3.68528 13.7518 3.69701 13.5931 3.72049 13.4287L0.0932617 10.6819L3.967 3.99087L8.15769 5.75167C8.41593 5.56385 8.68592 5.38777 8.96765 5.22343C9.24938 5.05909 9.5311 4.91822 9.81283 4.80084L10.3763 0.293213H18.1238L18.6872 4.80084C18.9924 4.91822 19.2802 5.05909 19.5507 5.22343C19.8212 5.38777 20.0851 5.56385 20.3424 5.75167L24.533 3.99087L28.4068 10.6819L24.7796 13.4287C24.803 13.5931 24.8148 13.7518 24.8148 13.9048V14.8543C24.8148 15.0073 24.7913 15.166 24.7443 15.3304L28.3716 18.0772L24.4978 24.7682L20.3424 23.0074C20.0841 23.1952 19.8141 23.3713 19.5324 23.5357C19.2507 23.7 18.9689 23.8409 18.6872 23.9582L18.1238 28.4659H10.3763ZM12.8414 25.6486H15.6234L16.1165 21.9157C16.8443 21.7279 17.5195 21.4523 18.1421 21.0889C18.7647 20.7254 19.3338 20.285 19.8493 19.7676L23.3357 21.2114L24.7091 18.8167L21.6806 16.5277C21.7979 16.199 21.8801 15.853 21.9271 15.4895C21.974 15.1261 21.9975 14.7561 21.9975 14.3795C21.9975 14.0039 21.974 13.6344 21.9271 13.2709C21.8801 12.9075 21.7979 12.561 21.6806 12.2314L24.7091 9.94235L23.3357 7.54767L19.8493 9.02674C19.3328 8.48676 18.7638 8.03506 18.1421 7.67163C17.5204 7.3082 16.8452 7.03211 16.1165 6.84336L15.6587 3.11048H12.8766L12.3836 6.84336C11.6558 7.03117 10.9811 7.30727 10.3594 7.67163C9.7377 8.036 9.16814 8.47596 8.65071 8.99152L5.16434 7.54767L3.79092 9.94235L6.81948 12.1962C6.7021 12.5483 6.61993 12.9005 6.57297 13.2526C6.52602 13.6048 6.50254 13.9804 6.50254 14.3795C6.50254 14.7552 6.52602 15.1191 6.57297 15.4712C6.61993 15.8234 6.7021 16.1755 6.81948 16.5277L3.79092 18.8167L5.16434 21.2114L8.65071 19.7323C9.16721 20.2723 9.73676 20.7245 10.3594 21.0889C10.982 21.4532 11.6567 21.7288 12.3836 21.9157L12.8414 25.6486ZM14.3205 19.3098C15.6821 19.3098 16.8443 18.8285 17.8068 17.8659C18.7694 16.9033 19.2507 15.7412 19.2507 14.3795C19.2507 13.0179 18.7694 11.8557 17.8068 10.8932C16.8443 9.93061 15.6821 9.44933 14.3205 9.44933C12.9353 9.44933 11.7671 9.93061 10.8158 10.8932C9.86448 11.8557 9.3893 13.0179 9.39024 14.3795C9.39024 15.7412 9.86589 16.9033 10.8172 17.8659C11.7685 18.8285 12.9362 19.3098 14.3205 19.3098Z" fill="white"/>
</svg>
