<svg width="20" height="15" viewBox="0 0 18 13" fill="none" xmlns="http://www.w3.org/2000/svg">
<path id="Vector" d="M17.0033 8.70358C16.6814 8.50114 16.3689 8.30464 16.3131 8.06622C16.2428 7.83768 16.4678 7.5534 16.6796 7.28627C16.9923 6.86014 17.3042 6.47164 17.2172 6.1183C17.1303 5.76495 16.6474 5.46128 16.166 5.16488L12.2542 2.6985L11.3206 3.91614L15.3431 6.43945L14.712 7.26264L13.3689 6.4244L10.9035 9.64002L14.5378 11.9192C14.9071 12.1514 15.4285 12.0662 15.6688 11.7344L17.2073 9.72789C17.4666 9.408 17.3725 8.9358 17.0033 8.70358ZM1.32021 3.60702L10.3733 9.30658L12.8387 6.09096L3.78566 0.391405L0.777643 0.882786L1.32021 3.60702Z" fill="#111111"/>
</svg>
