<svg width="598" height="800" viewBox="0 0 598 800" fill="none" xmlns="http://www.w3.org/2000/svg">
<path d="M70.8515 761.42C71.7544 782.983 89.4981 800 111.076 800H486.928C508.506 800 526.25 782.983 527.153 761.42L553.993 194.805H44.0107L70.8515 761.42ZM384.024 335.542C384.024 326.513 391.345 319.191 400.377 319.191H426.532C435.559 319.191 442.886 326.511 442.886 335.542V659.263C442.886 668.293 435.565 675.614 426.532 675.614H400.377C391.349 675.614 384.024 668.297 384.024 659.263V335.542ZM269.573 335.542C269.573 326.513 276.894 319.191 285.924 319.191H312.08C321.106 319.191 328.431 326.511 328.431 335.542V659.263C328.431 668.293 321.112 675.614 312.08 675.614H285.924C276.896 675.614 269.573 668.297 269.573 659.263V335.542ZM155.118 335.542C155.118 326.513 162.439 319.191 171.47 319.191H197.627C206.655 319.191 213.978 326.511 213.978 335.542V659.263C213.978 668.293 206.657 675.614 197.627 675.614H171.47C162.441 675.614 155.118 668.297 155.118 659.263V335.542Z" fill="white"/>
<path d="M571.864 41.212H398.471V8.43119C398.471 3.77592 394.698 0 390.04 0H207.96C203.304 0 199.531 3.77592 199.531 8.43119V41.21H26.1358C12.1817 41.21 0.871582 52.5221 0.871582 66.4762V145.847H597.128V66.4782C597.128 52.5241 585.818 41.212 571.864 41.212Z" fill="white"/>
</svg>
