<svg width="27" height="26" viewBox="0 0 27 26" fill="none" xmlns="http://www.w3.org/2000/svg">
<path d="M16.9694 10.8367L13.3155 15.213C12.9118 15.6966 12.1608 15.736 11.7047 15.2975L10.1953 13.8461" stroke="#E84339" stroke-width="2" stroke-linecap="round" stroke-linejoin="round"/>
<path d="M14.5927 4.77788C14.8176 4.6387 14.93 4.5691 15.0212 4.52377C16.1739 3.95074 17.5883 4.47376 18.0446 5.64172C18.0807 5.73413 18.1157 5.85824 18.1856 6.10646C18.218 6.22107 18.2341 6.27837 18.2521 6.3311C18.4708 6.9698 18.9965 7.46778 19.664 7.66834C19.7191 7.68489 19.7789 7.69956 19.8986 7.72889L20.061 7.7687C20.6233 7.90652 20.9045 7.97543 21.1098 8.07334C22.043 8.51835 22.5148 9.53896 22.2331 10.5033C22.1711 10.7154 22.0359 10.9623 21.7656 11.4559L21.6875 11.5986C21.6299 11.7036 21.6012 11.7562 21.577 11.8066C21.2846 12.4174 21.3168 13.1263 21.6634 13.7103C21.692 13.7585 21.7254 13.8085 21.7923 13.9083C21.937 14.1246 22.0094 14.2327 22.0566 14.3204C22.6525 15.4287 22.1086 16.7887 20.8939 17.2275C20.7978 17.2622 20.6687 17.2958 20.4106 17.3631C20.2914 17.3942 20.2318 17.4097 20.1769 17.427C19.5127 17.6372 18.9948 18.1428 18.7862 18.7846C18.769 18.8376 18.7537 18.8951 18.7232 19.0102L18.6818 19.1664C18.5385 19.707 18.4668 19.9773 18.365 20.1748C17.9022 21.0721 16.8408 21.5258 15.8379 21.2549C15.6172 21.1953 15.3605 21.0653 14.8471 20.8053L14.6988 20.7302C14.5895 20.6749 14.5349 20.6472 14.4824 20.624C13.8472 20.3429 13.1099 20.3738 12.5025 20.7071C12.4524 20.7346 12.4005 20.7667 12.2966 20.831C12.0717 20.9702 11.9593 21.0398 11.8681 21.0851C10.7155 21.6582 9.30103 21.1351 8.84471 19.9672C8.80861 19.8748 8.77363 19.7507 8.70366 19.5024C8.67136 19.3878 8.6552 19.3305 8.63716 19.2778C8.41855 18.6391 7.89278 18.1411 7.22531 17.9406C7.17021 17.924 7.11038 17.9093 6.99072 17.88L6.82826 17.8402C6.26599 17.7024 5.98486 17.6335 5.77953 17.5356C4.84628 17.0906 4.37447 16.0699 4.65623 15.1056C4.71822 14.8935 4.85339 14.6466 5.12373 14.153L5.20184 14.0103C5.25938 13.9053 5.28814 13.8527 5.31228 13.8023C5.60468 13.1915 5.57251 12.4825 5.22589 11.8986C5.19728 11.8504 5.16386 11.8004 5.09703 11.7006C4.95227 11.4843 4.87989 11.3762 4.83275 11.2885C4.2368 10.1802 4.78073 8.8202 5.99542 8.38143C6.09152 8.34671 6.2206 8.31307 6.47875 8.2458C6.59794 8.21474 6.65754 8.19921 6.71237 8.18186C7.37662 7.97166 7.89452 7.46611 8.1031 6.82431C8.12031 6.77133 8.13557 6.7138 8.16607 6.59874L8.20748 6.44254C8.35081 5.90189 8.42248 5.63157 8.5243 5.43414C8.98711 4.53678 10.0485 4.08312 11.0514 4.35404C11.2721 4.41364 11.5288 4.54362 12.0422 4.80356L12.1905 4.87867C12.2998 4.93399 12.3545 4.96165 12.4069 4.98486C13.0421 5.26601 13.7794 5.23508 14.3868 4.90179C14.4369 4.87428 14.4888 4.84215 14.5927 4.77788Z" stroke="#E84339" stroke-width="2" stroke-linecap="round" stroke-linejoin="round"/>
</svg>
