<svg width="17" height="18" viewBox="0 0 17 18" fill="none" xmlns="http://www.w3.org/2000/svg">
<path d="M8.61009 12.3403L8.32592 12.144L8.04175 12.3403L4.25711 14.9545L4.25709 14.9545L4.25445 14.9564C4.25301 14.9571 4.24567 14.9609 4.23089 14.9654C4.20977 14.972 4.18215 14.9774 4.15132 14.9794C4.12045 14.9815 4.09316 14.9797 4.07282 14.9762C4.06188 14.9744 4.0556 14.9725 4.05331 14.9717L4.04898 14.9694L4.04047 14.9651C4.00662 14.9484 3.98068 14.9241 3.96368 14.8971C3.94678 14.8703 3.93881 14.841 3.93895 14.8125L3.94146 14.31H3.91446V3.14651C3.91446 3.12077 3.92363 3.10146 3.9394 3.08623C3.95569 3.0705 3.98396 3.05505 4.02686 3.05505H12.6005C12.6434 3.05505 12.6717 3.0705 12.6879 3.08623C12.7037 3.10146 12.7129 3.12077 12.7129 3.14651V14.808C12.7127 14.8094 12.7118 14.816 12.7079 14.8279C12.7022 14.8451 12.6924 14.8667 12.678 14.8896C12.6637 14.9124 12.6475 14.932 12.6323 14.9468C12.6248 14.954 12.6184 14.9593 12.6134 14.9629C12.611 14.9647 12.6091 14.966 12.6077 14.9668L12.6061 14.9678C12.606 14.9679 12.6059 14.9679 12.6058 14.968C12.5406 15.0007 12.4544 14.9947 12.3931 14.9534C12.3928 14.9532 12.3925 14.953 12.3922 14.9528L8.61009 12.3403ZM4.63926 3.23796H4.13926V3.73796V13.8282V14.7785L4.92246 14.2402L8.18918 11.9951C8.19078 11.9943 8.19975 11.99 8.21829 11.9852C8.24367 11.9787 8.27721 11.9742 8.31521 11.9742C8.3531 11.9742 8.38837 11.9787 8.41693 11.9859C8.43087 11.9893 8.44161 11.993 8.44923 11.9962C8.45314 11.9978 8.45585 11.9991 8.4575 12L11.7171 14.2402L12.5003 14.7785V13.8282V3.73796V3.23796H12.0003H4.65151H4.63926Z" fill="#E84339" stroke="#E84339"/>
</svg>
